<svg width="39" height="39" viewBox="0 0 39 39" fill="none" xmlns="http://www.w3.org/2000/svg">
<path d="M34.7344 15.9656C34.7344 15.9656 32.9062 17.6719 29.7984 19.6828C28.9453 14.7469 26.5687 8.65312 21.9375 1.21875C21.9375 1.21875 20.4141 9.20156 15.3562 16.6969C13.1625 13.2844 12.1875 10.6031 12.1875 10.6031C-3.65625 26.5078 9.50625 37.7812 17.7937 37.7812C28.3969 37.7812 37.7203 32.6625 34.7344 15.9656Z" fill="#FF9D33"/>
<path d="M28.4578 30.1032C29.3719 28.0922 30.0422 25.4719 30.1641 22.1813C30.1641 22.1813 28.8844 23.2782 26.6906 24.6797C26.0812 21.3891 24.4359 17.3672 21.2062 12.3704C21.2062 12.3704 20.1703 17.6719 16.6359 22.7297C15.1125 20.475 14.4422 18.6469 14.4422 18.6469C11.8219 22.7907 10.7859 26.0813 10.725 28.7016C9.2625 28.1532 8.34843 27.7266 8.34843 27.7266C10.8469 35.161 16.0266 36.8063 18.3422 36.8063C22.4859 36.8063 26.6906 35.5875 30.8344 29.6766C30.8344 29.6157 29.9203 29.8594 28.4578 30.1032Z" fill="#FFCE31"/>
<path d="M13.3453 26.7516C13.3453 26.7516 15.0516 29.0672 16.3313 28.5187C16.3313 28.5187 18.7688 24.6797 22.3031 22.5469C22.3031 22.5469 21.5719 28.3969 22.425 29.4328C23.5219 30.8344 26.5078 27.9094 26.5078 27.9094C26.5078 31.3828 22.7297 35.7094 19.3172 35.7094C16.0266 35.7094 11.2734 31.9313 13.3453 26.7516" fill="#FFDF85"/>
<path d="M30.3469 11.0297C31.6266 9.20156 32.4797 7.25156 32.4797 7.25156C34.6125 10.7859 33.3328 12.9187 32.4187 13.5891C31.1391 14.5641 28.8844 13.1625 30.3469 11.0297ZM7.06874 10.4203C5.78906 8.2875 5.66718 5.60625 5.66718 5.60625C2.62031 10.1766 3.77812 12.7359 4.81405 13.4672C6.15468 14.5031 8.4703 12.9187 7.06874 10.4203ZM14.1375 5.66719C14.3203 4.20469 13.7109 2.74219 13.7109 2.74219C16.575 4.63125 16.575 6.21563 16.2094 6.88594C15.6609 7.67812 13.9547 7.3125 14.1375 5.66719Z" fill="#FF9D33"/>
</svg>
